<svg width="145" height="28" viewBox="0 0 145 28" fill="none" xmlns="http://www.w3.org/2000/svg">
<g clip-path="url(#clip0)">
<path d="M17.9069 16.2637C17.7962 17.7936 17.2298 18.998 16.2077 19.877C15.1921 20.7559 13.8509 21.1953 12.1843 21.1953C10.3613 21.1953 8.9258 20.5833 7.87762 19.3594C6.83596 18.1289 6.31512 16.4427 6.31512 14.3008V13.4316C6.31512 12.0645 6.55601 10.86 7.03778 9.81836C7.51955 8.77669 8.2064 7.97917 9.09833 7.42578C9.99677 6.86589 11.0384 6.58594 12.2233 6.58594C13.864 6.58594 15.1856 7.02539 16.1882 7.9043C17.1908 8.7832 17.7702 10.0169 17.9265 11.6055H14.9968C14.9252 10.6875 14.668 10.0234 14.2253 9.61328C13.7891 9.19661 13.1218 8.98828 12.2233 8.98828C11.2468 8.98828 10.5143 9.33984 10.0261 10.043C9.54429 10.7396 9.2969 11.8236 9.28387 13.2949V14.3691C9.28387 15.9056 9.51499 17.0286 9.97723 17.7383C10.446 18.4479 11.1817 18.8027 12.1843 18.8027C13.0892 18.8027 13.763 18.5977 14.2057 18.1875C14.655 17.7708 14.9121 17.1296 14.9772 16.2637H17.9069ZM31.5104 14.2129C31.5104 15.6126 31.263 16.8398 30.7682 17.8945C30.2735 18.9492 29.5638 19.763 28.6393 20.3359C27.7214 20.9089 26.6667 21.1953 25.4753 21.1953C24.2969 21.1953 23.2455 20.9121 22.321 20.3457C21.3965 19.7793 20.6804 18.972 20.1725 17.9238C19.6647 16.8691 19.4076 15.6582 19.4011 14.291V13.5879C19.4011 12.1882 19.6517 10.9577 20.153 9.89648C20.6608 8.82878 21.3737 8.01172 22.2917 7.44531C23.2162 6.8724 24.2709 6.58594 25.4557 6.58594C26.6406 6.58594 27.6921 6.8724 28.61 7.44531C29.5345 8.01172 30.2474 8.82878 30.7487 9.89648C31.2565 10.9577 31.5104 12.1849 31.5104 13.5781V14.2129ZM28.5417 13.5684C28.5417 12.0775 28.2748 10.9447 27.7409 10.1699C27.2071 9.39518 26.4453 9.00781 25.4557 9.00781C24.4727 9.00781 23.7142 9.39193 23.1804 10.1602C22.6465 10.9219 22.3763 12.0417 22.3698 13.5195V14.2129C22.3698 15.6647 22.6367 16.791 23.1706 17.5918C23.7044 18.3926 24.4727 18.793 25.4753 18.793C26.4584 18.793 27.2136 18.4089 27.7409 17.6406C28.2682 16.8659 28.5352 15.7396 28.5417 14.2617V13.5684ZM38.6784 17.4746L41.9011 6.78125H45.1628L40.2116 21H37.155L32.2233 6.78125H35.4753L38.6784 17.4746ZM49.6257 21H46.696V6.78125H49.6257V21ZM52.3503 21V6.78125H56.7253C57.9753 6.78125 59.0918 7.06445 60.0749 7.63086C61.0645 8.19076 61.836 8.99154 62.3893 10.0332C62.9427 11.0684 63.2194 12.2467 63.2194 13.5684V14.2227C63.2194 15.5443 62.946 16.7194 62.3991 17.748C61.8587 18.7767 61.0938 19.5742 60.1042 20.1406C59.1146 20.707 57.9981 20.9935 56.7546 21H52.3503ZM55.28 9.1543V18.6465H56.696C57.8418 18.6465 58.7175 18.2721 59.3229 17.5234C59.9284 16.7747 60.2377 15.7038 60.2507 14.3105V13.5586C60.2507 12.1133 59.9512 11.0195 59.3522 10.2773C58.7533 9.52865 57.8776 9.1543 56.7253 9.1543H55.28ZM70.6608 16.0488H65.1628V13.7734H70.6608V16.0488ZM79.6647 21H76.8425V10.1211L73.4733 11.166V8.87109L79.362 6.76172H79.6647V21ZM90.8952 15.3164C90.1595 16.0391 89.3002 16.4004 88.3171 16.4004C87.0606 16.4004 86.0547 15.9707 85.2995 15.1113C84.5443 14.2454 84.1667 13.0801 84.1667 11.6152C84.1667 10.6842 84.3685 9.83138 84.7722 9.05664C85.1823 8.27539 85.752 7.66992 86.4811 7.24023C87.2103 6.80404 88.0306 6.58594 88.9421 6.58594C89.8796 6.58594 90.7129 6.82031 91.4421 7.28906C92.1712 7.75781 92.7377 8.43164 93.1413 9.31055C93.5449 10.1895 93.75 11.1953 93.7565 12.3281V13.373C93.7565 15.7428 93.1673 17.6048 91.989 18.959C90.8106 20.3132 89.1406 21.0358 86.9792 21.127L86.2858 21.1367V18.7832L86.9108 18.7734C89.3653 18.6628 90.6934 17.5104 90.8952 15.3164ZM89.0104 14.2422C89.4662 14.2422 89.8568 14.125 90.1823 13.8906C90.5143 13.6562 90.765 13.373 90.9343 13.041V11.8789C90.9343 10.9219 90.752 10.1797 90.3874 9.65234C90.0228 9.125 89.5345 8.86133 88.9225 8.86133C88.3561 8.86133 87.8906 9.12174 87.5261 9.64258C87.1615 10.1569 86.9792 10.8047 86.9792 11.5859C86.9792 12.3607 87.155 12.9987 87.5065 13.5C87.8646 13.9948 88.3659 14.2422 89.0104 14.2422Z" fill="#00A040"/>
<path d="M102.14 22.4C103.24 21.38 103.9 19.66 104.32 18.18L103.08 17.72C102.7 19.16 102 20.74 100.94 21.68L102.14 22.4ZM105.78 18.3C106.1 19.42 106.28 20.92 106.24 21.86L107.56 21.66C107.56 20.72 107.38 19.24 107.02 18.12L105.78 18.3ZM109.02 18.22C109.5 19.24 109.88 20.58 109.98 21.4L111.22 21.08C111.1 20.26 110.66 18.94 110.18 17.94L109.02 18.22ZM114.68 6.96V8.42H105.1V6.96H114.68ZM105.1 10.96V9.44H114.68V10.96H105.1ZM118.94 14.5V13.4H105.1V12.06H116.14V5.86H110.04C110.32 5.42 110.6 4.9 110.84 4.4L109.14 4.16C109 4.64 108.74 5.3 108.48 5.86H103.64V17.04H116.9C116.68 19.74 116.42 20.84 116.12 21.18C115.96 21.32 115.78 21.34 115.44 21.34C115.12 21.34 114.22 21.34 113.3 21.28C113.48 21.6 113.64 22.14 113.66 22.48C114.64 22.56 115.58 22.56 116.08 22.52C116.6 22.48 116.96 22.36 117.3 22.02C117.8 21.48 118.08 20.08 118.34 16.48C118.36 16.3 118.38 15.9 118.38 15.9H105.1V14.5H118.94ZM114.7 20.06C114.44 19.38 113.82 18.32 113.22 17.52L112.16 17.94C112.74 18.72 113.36 19.82 113.6 20.52L114.7 20.06ZM127.9 9.56H124V6.9H127.9V9.56ZM124 15.02H127.9V17.48C126.56 17.68 125.22 17.88 124 18.04V15.02ZM127.9 13.66H124V10.88H127.9V13.66ZM130.74 6.9V5.52H121.04V6.9H122.6V18.24C121.88 18.34 121.22 18.42 120.66 18.48L120.92 19.98C122.82 19.66 125.38 19.28 127.9 18.86V22.48H129.34V6.9H130.74ZM137.66 6.94L137.38 7H130.24V8.46H136.98C136.52 11.4 135.66 13.9 134.5 15.94C133.36 13.82 132.56 11.3 132.04 8.54L130.62 8.8C131.28 12.08 132.22 14.98 133.6 17.34C132.4 18.98 130.98 20.22 129.4 21.04C129.72 21.32 130.16 21.86 130.38 22.24C131.9 21.36 133.28 20.18 134.46 18.68C135.54 20.18 136.86 21.4 138.44 22.3C138.68 21.92 139.16 21.36 139.5 21.08C137.84 20.24 136.48 18.96 135.38 17.36C136.98 14.82 138.1 11.5 138.62 7.22L137.66 6.94Z" fill="#898989"/>
</g>
<defs>
<clipPath id="clip0">
<rect width="145" height="28" fill="white"/>
</clipPath>
</defs>
</svg>
